<svg id="Layer_1" data-name="Layer 1" xmlns="http://www.w3.org/2000/svg" viewBox="0 0 246 67.67"><title>LogoMTElements</title><path d="M34.63,47.4c-.12,0-.17-.07-.17-.21L34.54,18c0-.11.06-.16.17-.16H39.9a.38.38,0,0,1,.3.16l3.87,5.62L47.94,18a.35.35,0,0,1,.3-.16h5.23c.11,0,.17.05.17.16l.08,29.22c0,.14,0,.21-.17.21h-4.8c-.12,0-.17-.07-.17-.21l0-21.69L44.07,32,39.65,25.5l0,21.69c0,.14-.05.21-.17.21Z" style="fill:#10426d"/><path d="M63.16,55.23c-.11,0-.17-.07-.17-.21V30.78H57.46a.19.19,0,0,1-.21-.21l0-4.76a.15.15,0,0,1,.17-.17H73.62c.14,0,.21.05.21.17v4.76c0,.14,0,.21-.16.21H68.09l0,24.24c0,.14-.06.21-.17.21Z" style="fill:#10426d"/><path d="M30.31,47.69c-.13,0-.2-.08-.2-.25L30.21,13a.18.18,0,0,1,.2-.2h6.13a.45.45,0,0,1,.35.2l4.57,6.63L46,13a.45.45,0,0,1,.35-.2h6.18a.18.18,0,0,1,.2.2l.1,34.48c0,.17-.07.25-.2.25H47c-.14,0-.2-.08-.2-.25l-.05-25.6-5.27,7.63-5.22-7.63-.05,25.6c0,.17-.07.25-.2.25Z" style="fill:#005399"/><path d="M64,56.93c-.14,0-.2-.08-.2-.25V28.07H57.26a.22.22,0,0,1-.25-.25l.05-5.62a.18.18,0,0,1,.2-.2H76.33c.17,0,.25.07.25.2v5.62c0,.17-.06.25-.2.25H69.81l0,28.61c0,.17-.07.25-.2.25Z" style="fill:#005399"/><path d="M89.17,23.24h3.24V46.32H89.17Zm1.58,0H104v3.08H90.75Zm0,10.08h11.51V36.4H90.75Zm0,9.92H104v3.08H90.75Z" style="fill:#676867"/><path d="M111.53,42.06a1.39,1.39,0,0,0,.26.93.88.88,0,0,0,.74.33h1.52V46.4h-1.9a3.6,3.6,0,0,1-2.85-1.14,4.7,4.7,0,0,1-1-3.23V23.24h3.24Z" style="fill:#676867"/><path d="M122.16,46.56l-1.62-.86a5.71,5.71,0,0,1-2.46-2.52,8.64,8.64,0,0,1-.85-4V37.32a9.83,9.83,0,0,1,.81-4.18,5.86,5.86,0,0,1,2.38-2.63,7.26,7.26,0,0,1,3.75-.91,6,6,0,0,1,3.52,1,6.45,6.45,0,0,1,2.23,3,12.81,12.81,0,0,1,.77,4.68v1.08H119.58v-2.6h8a5.58,5.58,0,0,0-1-3.14,2.94,2.94,0,0,0-2.4-1.12,3.52,3.52,0,0,0-2.85,1.21,5.12,5.12,0,0,0-1,3.41v2.1a4.29,4.29,0,0,0,1.08,3.14,4.11,4.11,0,0,0,3.06,1.1,5,5,0,0,0,2-.4A5.51,5.51,0,0,0,128.13,42l2.13,2.13a8.76,8.76,0,0,1-2.75,1.81,7.76,7.76,0,0,1-3.06.65Z" style="fill:#676867"/><path d="M135.13,29.84h3.24V46.32h-3.24ZM145,36.33a3.92,3.92,0,0,0-.86-2.7,3.11,3.11,0,0,0-2.43-1,3.37,3.37,0,0,0-2.45.84,3.14,3.14,0,0,0-.87,2.37L138,32.71a5.92,5.92,0,0,1,2-2.3,4.86,4.86,0,0,1,2.73-.81,5.31,5.31,0,0,1,3,.79,4.9,4.9,0,0,1,1.86,2.29,9.25,9.25,0,0,1,.65,3.64v10H145Zm9.84,0a3.8,3.8,0,0,0-.9-2.7,3.36,3.36,0,0,0-2.54-1,3,3,0,0,0-2.34.92,3.78,3.78,0,0,0-.82,2.61L147.57,33a6.27,6.27,0,0,1,2.05-2.53,4.78,4.78,0,0,1,2.82-.9,5.57,5.57,0,0,1,3,.79,5,5,0,0,1,1.92,2.29,9.07,9.07,0,0,1,.66,3.64v10h-3.24Z" style="fill:#676867"/><path d="M167.44,46.56l-1.62-.86a5.73,5.73,0,0,1-2.47-2.52,8.77,8.77,0,0,1-.85-4V37.32a9.83,9.83,0,0,1,.82-4.18,5.86,5.86,0,0,1,2.38-2.63,7.22,7.22,0,0,1,3.74-.91,6,6,0,0,1,3.53,1,6.52,6.52,0,0,1,2.23,3A12.81,12.81,0,0,1,176,38.3v1.08H164.85v-2.6h8a5.58,5.58,0,0,0-1-3.14,3,3,0,0,0-2.41-1.12,3.53,3.53,0,0,0-2.85,1.21,5.18,5.18,0,0,0-1,3.41v2.1a4.29,4.29,0,0,0,1.09,3.14,4.09,4.09,0,0,0,3.06,1.1,5,5,0,0,0,2-.4A5.63,5.63,0,0,0,173.41,42l2.13,2.13a8.87,8.87,0,0,1-2.75,1.81,7.76,7.76,0,0,1-3.06.65Z" style="fill:#676867"/><path d="M180.41,29.84h3.24V46.32h-3.24Zm10,6.49a3.8,3.8,0,0,0-.91-2.7,3.93,3.93,0,0,0-5-.11,3.14,3.14,0,0,0-.87,2.37l-.33-3.18a5.92,5.92,0,0,1,2-2.3A4.85,4.85,0,0,1,188,29.6a5.13,5.13,0,0,1,4.16,1.76,7.56,7.56,0,0,1,1.46,5v10h-3.23Z" style="fill:#676867"/><path d="M197.31,29.84h7.43v2.92h-7.43Zm2.62,15.45A4.93,4.93,0,0,1,199,42v-17h3.24v17a1.52,1.52,0,0,0,.24.93.81.81,0,0,0,.7.33h1.56V46.4h-1.88A3.62,3.62,0,0,1,199.93,45.29Z" style="fill:#676867"/><path d="M213.55,46.56l-1.28-.29a9.58,9.58,0,0,1-2.39-.86,9.22,9.22,0,0,1-2-1.43l1.92-2.36a10.63,10.63,0,0,0,2.65,1.52,7.2,7.2,0,0,0,2.61.51,5.63,5.63,0,0,0,2.88-.59,2,2,0,0,0,1-1.79,1.41,1.41,0,0,0-.52-1.19,2.92,2.92,0,0,0-1.31-.53c-.52-.09-1.25-.17-2.19-.25h-.27l-.27,0H214a13.09,13.09,0,0,1-2.72-.46,3.77,3.77,0,0,1-1.85-1.28,4.27,4.27,0,0,1-.73-2.68,5.41,5.41,0,0,1,.71-2.91,4.41,4.41,0,0,1,2.13-1.74,9.29,9.29,0,0,1,3.54-.58,12.12,12.12,0,0,1,2.45.24,10.54,10.54,0,0,1,2.23.71,10.86,10.86,0,0,1,2,1.18l-1.95,2.36a11.64,11.64,0,0,0-2.44-1.19,7.55,7.55,0,0,0-2.34-.39,4.48,4.48,0,0,0-2.48.56,1.91,1.91,0,0,0-.82,1.69,1.14,1.14,0,0,0,.46,1,2.9,2.9,0,0,0,1.19.45c.47.07,1.15.13,2,.19h.2l.21,0h.19a14.64,14.64,0,0,1,3,.46,4,4,0,0,1,2,1.39,4.66,4.66,0,0,1,.82,3,5.28,5.28,0,0,1-.76,2.95A4.63,4.63,0,0,1,218.86,46a10.9,10.9,0,0,1-3.85.59Z" style="fill:#676867"/></svg>