<svg id="Layer_1" data-name="Layer 1" xmlns="http://www.w3.org/2000/svg" viewBox="0 0 183 67.67"><title>LogoMTElements</title><path d="M22.88,45c-.12,0-.17-.07-.17-.22l.08-29.21a.15.15,0,0,1,.17-.17h5.19a.39.39,0,0,1,.3.17l3.87,5.61,3.87-5.61a.36.36,0,0,1,.3-.17h5.23a.15.15,0,0,1,.17.17L42,44.73c0,.15,0,.22-.17.22H37c-.12,0-.17-.07-.17-.22l0-21.68-4.46,6.46L27.9,23.05l0,21.68c0,.15-.05.22-.17.22Z" style="fill:#10426d"/><path d="M51.41,52.78c-.11,0-.17-.07-.17-.22V28.32H45.71a.19.19,0,0,1-.21-.21l0-4.76a.15.15,0,0,1,.17-.17H61.87c.14,0,.21.06.21.17v4.76c0,.14,0,.21-.17.21H56.34l0,24.24c0,.15-.06.22-.17.22Z" style="fill:#10426d"/><path d="M22,43.86c-.11,0-.17-.07-.17-.21l.09-29.21c0-.12.05-.17.17-.17h5.18a.34.34,0,0,1,.3.17l3.87,5.61,3.87-5.61a.37.37,0,0,1,.3-.17H40.8a.15.15,0,0,1,.17.17l.09,29.21c0,.14-.06.21-.17.21H36.08c-.11,0-.17-.07-.17-.21l0-21.69L31.4,28.43,27,22l0,21.69c0,.14-.06.21-.17.21Z" style="fill:#005399"/><path d="M50.49,51.69c-.11,0-.17-.07-.17-.21V27.24H44.8c-.15,0-.22-.07-.22-.21l.05-4.76c0-.12,0-.17.17-.17H61c.14,0,.21,0,.21.17V27c0,.14-.06.21-.17.21H55.43l0,24.24c0,.14-.06.21-.17.21Z" style="fill:#005399"/><path d="M69,29.35h2.19V45H69Zm1.06,0h9v2.08h-9Zm0,6.81h7.78v2.08H70.05Zm0,6.71h9V45h-9Z" style="fill:#676867"/><path d="M84.09,42.07a1,1,0,0,0,.18.63.59.59,0,0,0,.5.22h1V45H84.51a2.43,2.43,0,0,1-1.92-.77,3.17,3.17,0,0,1-.69-2.18V29.35h2.19Z" style="fill:#676867"/><path d="M91.28,45.11l-1.09-.58a3.87,3.87,0,0,1-1.67-1.7,5.93,5.93,0,0,1-.58-2.71V38.86A6.53,6.53,0,0,1,88.5,36a4,4,0,0,1,1.6-1.78,4.94,4.94,0,0,1,2.53-.61,4,4,0,0,1,2.38.7,4.3,4.3,0,0,1,1.51,2A8.59,8.59,0,0,1,97,39.53v.73H89.53V38.5H95a3.73,3.73,0,0,0-.7-2.12,2,2,0,0,0-1.63-.76,2.37,2.37,0,0,0-1.92.82A3.46,3.46,0,0,0,90,38.75v1.41a2.91,2.91,0,0,0,.73,2.13,2.77,2.77,0,0,0,2.07.74,3.46,3.46,0,0,0,1.32-.27A3.85,3.85,0,0,0,95.31,42l1.44,1.43a6.1,6.1,0,0,1-1.85,1.23,5.31,5.31,0,0,1-2.07.44Z" style="fill:#676867"/><path d="M100.05,33.81h2.18V45h-2.18Zm6.65,4.39a2.68,2.68,0,0,0-.58-1.83,2.12,2.12,0,0,0-1.64-.64,2.28,2.28,0,0,0-1.66.57,2.13,2.13,0,0,0-.59,1.6L102,35.75a3.88,3.88,0,0,1,1.35-1.55,3.21,3.21,0,0,1,1.84-.55,3.65,3.65,0,0,1,2,.53,3.32,3.32,0,0,1,1.26,1.55,6.25,6.25,0,0,1,.44,2.46V45H106.7Zm6.65,0a2.55,2.55,0,0,0-.61-1.83,2.29,2.29,0,0,0-1.72-.64,2,2,0,0,0-1.58.62,2.56,2.56,0,0,0-.55,1.76L108.45,36a4.19,4.19,0,0,1,1.39-1.71,3.19,3.19,0,0,1,1.9-.61,3.81,3.81,0,0,1,2.05.53,3.33,3.33,0,0,1,1.3,1.55,6.07,6.07,0,0,1,.45,2.46V45h-2.19Z" style="fill:#676867"/><path d="M121.88,45.11l-1.1-.58a3.84,3.84,0,0,1-1.66-1.7,5.8,5.8,0,0,1-.58-2.71V38.86a6.69,6.69,0,0,1,.55-2.82,4,4,0,0,1,1.61-1.78,4.91,4.91,0,0,1,2.53-.61,4,4,0,0,1,2.38.7,4.3,4.3,0,0,1,1.51,2,8.59,8.59,0,0,1,.52,3.17v.73h-7.51V38.5h5.43a3.81,3.81,0,0,0-.7-2.12,2,2,0,0,0-1.63-.76,2.4,2.4,0,0,0-1.93.82,3.52,3.52,0,0,0-.68,2.31v1.41a3,3,0,0,0,.73,2.13,2.8,2.8,0,0,0,2.07.74,3.39,3.39,0,0,0,1.32-.27,3.78,3.78,0,0,0,1.17-.75l1.44,1.43a6,6,0,0,1-1.86,1.23,5.24,5.24,0,0,1-2.07.44Z" style="fill:#676867"/><path d="M130.64,33.81h2.19V45h-2.19Zm6.76,4.39a2.55,2.55,0,0,0-.61-1.83,2.29,2.29,0,0,0-1.72-.64,2.27,2.27,0,0,0-1.65.57,2.13,2.13,0,0,0-.59,1.6l-.22-2.15A3.93,3.93,0,0,1,134,34.2a3.26,3.26,0,0,1,1.84-.55,3.44,3.44,0,0,1,2.81,1.19,5.07,5.07,0,0,1,1,3.35V45H137.4Z" style="fill:#676867"/><path d="M142.06,33.81h5v2h-5Zm1.77,10.44a3.38,3.38,0,0,1-.62-2.2V30.57h2.18v11.5a1.13,1.13,0,0,0,.16.63.55.55,0,0,0,.48.22h1.05V45h-1.27A2.44,2.44,0,0,1,143.83,44.25Z" style="fill:#676867"/><path d="M153,45.11l-.86-.2a6.77,6.77,0,0,1-1.62-.57,6.25,6.25,0,0,1-1.38-1l1.3-1.6a7.34,7.34,0,0,0,1.79,1,4.86,4.86,0,0,0,1.76.34,3.74,3.74,0,0,0,1.95-.4,1.34,1.34,0,0,0,.65-1.21.94.94,0,0,0-.36-.8,2,2,0,0,0-.88-.36c-.35-.06-.84-.11-1.48-.17h-.18l-.18,0h-.17a9.1,9.1,0,0,1-1.84-.31,2.59,2.59,0,0,1-1.25-.87,2.87,2.87,0,0,1-.5-1.81,3.59,3.59,0,0,1,.49-2A2.9,2.9,0,0,1,151.7,34a6.41,6.41,0,0,1,2.4-.39,8,8,0,0,1,1.65.16,7.6,7.6,0,0,1,1.51.48,7.38,7.38,0,0,1,1.38.8l-1.32,1.6a7.13,7.13,0,0,0-1.64-.81,5,5,0,0,0-1.58-.27,3,3,0,0,0-1.68.38,1.31,1.31,0,0,0-.56,1.15.77.77,0,0,0,.32.67,1.86,1.86,0,0,0,.8.3,13.61,13.61,0,0,0,1.37.13h.41a9.3,9.3,0,0,1,2,.32,2.59,2.59,0,0,1,1.38.93,3.15,3.15,0,0,1,.56,2,3.48,3.48,0,0,1-.52,2,3.05,3.05,0,0,1-1.55,1.19,7.44,7.44,0,0,1-2.6.4Z" style="fill:#676867"/></svg>